<?xml version="1.0" encoding="UTF-8" standalone="no"?>
<!-- Created with Inkscape (http://www.inkscape.org/) -->

<svg
   width="102.30556mm"
   height="55.738861mm"
   viewBox="0 0 102.30556 55.738861"
   version="1.1"
   id="svg15154"
   inkscape:version="1.2.2 (732a01da63, 2022-12-09)"
   sodipodi:docname="stdev_notation.svg"
   xmlns:inkscape="http://www.inkscape.org/namespaces/inkscape"
   xmlns:sodipodi="http://sodipodi.sourceforge.net/DTD/sodipodi-0.dtd"
   xmlns="http://www.w3.org/2000/svg"
   xmlns:svg="http://www.w3.org/2000/svg">
  <sodipodi:namedview
     id="namedview15156"
     pagecolor="#ffffff"
     bordercolor="#000000"
     borderopacity="0.25"
     inkscape:showpageshadow="2"
     inkscape:pageopacity="0.0"
     inkscape:pagecheckerboard="0"
     inkscape:deskcolor="#d1d1d1"
     inkscape:document-units="mm"
     showgrid="false"
     inkscape:zoom="0.2102413"
     inkscape:cx="1250.9435"
     inkscape:cy="537.47765"
     inkscape:window-width="1920"
     inkscape:window-height="1137"
     inkscape:window-x="1912"
     inkscape:window-y="-8"
     inkscape:window-maximized="1"
     inkscape:current-layer="layer1" />
  <defs
     id="defs15151" />
  <g
     inkscape:label="Layer 1"
     inkscape:groupmode="layer"
     id="layer1"
     transform="translate(268.86888,-6.1093865)">
    <g
       transform="matrix(0.26458333,0,0,0.26458333,-442.21506,3.41943)"
       id="g1221">
      <text
         font-family="Calibri, Calibri_MSFontService, sans-serif"
         font-weight="400"
         font-size="200px"
         transform="translate(705.6,187)"
         id="text1213">s</text>
      <path
         d="m 656.5,22.8345 c 0,-6.2598 5.075,-11.3344 11.335,-11.3344 h 153.331 c 6.259,0 11.334,5.0746 11.334,11.3344 V 208.166 c 0,6.259 -5.075,11.334 -11.334,11.334 H 667.835 c -6.26,0 -11.335,-5.075 -11.335,-11.334 z"
         stroke="#262626"
         stroke-width="2.66667"
         stroke-linejoin="round"
         stroke-miterlimit="10"
         fill="none"
         fill-rule="evenodd"
         id="path1215" />
      <path
         d="m 656.5,22.4396 c 0,-6.0417 4.898,-10.9395 10.94,-10.9395 h 154.12 c 6.042,0 10.94,4.8978 10.94,10.9395 v 18.1209 c 0,6.0417 -4.898,10.9396 -10.94,10.9396 H 667.44 c -6.042,0 -10.94,-4.8979 -10.94,-10.9396 z"
         stroke="#262626"
         stroke-width="2.66667"
         stroke-linejoin="round"
         stroke-miterlimit="10"
         fill="#d9d9d9"
         fill-rule="evenodd"
         id="path1217"
         style="fill:#2b6cb0" />
      <text
         fill="#595959"
         font-family="Calibri, Calibri_MSFontService, sans-serif"
         font-weight="400"
         font-size="24px"
         transform="translate(708.083,39)"
         id="text1219"
         style="fill:#fafafa">Sample</text>
    </g>
    <g
       transform="matrix(0.26458333,0,0,0.26458333,-442.21506,3.41943)"
       id="g1242">
      <text
         font-family="Calibri, Calibri_MSFontService, sans-serif"
         font-weight="400"
         font-size="200px"
         transform="translate(897.6,187)"
         id="text1234">σ</text>
      <path
         d="m 864.5,22.8345 c 0,-6.2598 5.075,-11.3344 11.335,-11.3344 h 153.335 c 6.26,0 11.33,5.0746 11.33,11.3344 V 208.166 c 0,6.259 -5.07,11.334 -11.33,11.334 H 875.835 c -6.26,0 -11.335,-5.075 -11.335,-11.334 z"
         stroke="#262626"
         stroke-width="2.66667"
         stroke-linejoin="round"
         stroke-miterlimit="10"
         fill="none"
         fill-rule="evenodd"
         id="path1236" />
      <path
         d="m 864.5,22.4396 c 0,-6.0417 4.898,-10.9395 10.94,-10.9395 h 154.12 c 6.04,0 10.94,4.8978 10.94,10.9395 v 18.1209 c 0,6.0417 -4.9,10.9396 -10.94,10.9396 H 875.44 c -6.042,0 -10.94,-4.8979 -10.94,-10.9396 z"
         stroke="#262626"
         stroke-width="2.66667"
         stroke-linejoin="round"
         stroke-miterlimit="10"
         fill="#d9d9d9"
         fill-rule="evenodd"
         id="path1238" />
      <text
         fill="#595959"
         font-family="Calibri, Calibri_MSFontService, sans-serif"
         font-weight="400"
         font-size="24px"
         transform="translate(899.267,39)"
         id="text1240">Population</text>
    </g>
  </g>
</svg>
