<?xml version="1.0" encoding="UTF-8" standalone="no"?>
<!-- Created with Inkscape (http://www.inkscape.org/) -->

<svg
   width="240.78827mm"
   height="135.08516mm"
   viewBox="0 0 240.78827 135.08516"
   version="1.1"
   id="svg19964"
   inkscape:version="1.2.2 (732a01da63, 2022-12-09)"
   sodipodi:docname="research_design_hyp_questions.svg"
   xmlns:inkscape="http://www.inkscape.org/namespaces/inkscape"
   xmlns:sodipodi="http://sodipodi.sourceforge.net/DTD/sodipodi-0.dtd"
   xmlns="http://www.w3.org/2000/svg"
   xmlns:svg="http://www.w3.org/2000/svg">
  <sodipodi:namedview
     id="namedview19966"
     pagecolor="#ffffff"
     bordercolor="#000000"
     borderopacity="0.25"
     inkscape:showpageshadow="2"
     inkscape:pageopacity="0.0"
     inkscape:pagecheckerboard="0"
     inkscape:deskcolor="#d1d1d1"
     inkscape:document-units="mm"
     showgrid="false"
     inkscape:zoom="0.84096521"
     inkscape:cx="229.4982"
     inkscape:cy="394.78447"
     inkscape:window-width="1920"
     inkscape:window-height="1137"
     inkscape:window-x="1912"
     inkscape:window-y="-8"
     inkscape:window-maximized="1"
     inkscape:current-layer="layer1" />
  <defs
     id="defs19961" />
  <g
     inkscape:label="Layer 1"
     inkscape:groupmode="layer"
     id="layer1"
     transform="translate(-4.5338574e-7,135.08516)">
    <g
       transform="matrix(0.26458333,0,0,0.26458333,-49.40781,-162.60183)"
       id="g20127">
      <text
         fill="#a6a6a6"
         font-family="Calibri, Calibri_MSFontService, sans-serif"
         font-weight="700"
         font-size="37px"
         transform="translate(185.6,608)"
         id="text20085">Situation</text>
      <text
         fill="#a6a6a6"
         font-family="Calibri, Calibri_MSFontService, sans-serif"
         font-weight="700"
         font-size="37px"
         transform="translate(473.6,608)"
         id="text20087">Symptoms</text>
      <text
         fill="#a6a6a6"
         font-family="Calibri, Calibri_MSFontService, sans-serif"
         font-weight="700"
         font-size="37px"
         transform="translate(761.6,608)"
         id="text20089">Problem/Opportunity</text>
      <text
         fill="#1c1c1c"
         font-family="Calibri, Calibri_MSFontService, sans-serif"
         font-weight="700"
         font-size="37px"
         transform="translate(481.6,480)"
         id="text20091">Decision Statement</text>
      <text
         fill="#1c1c1c"
         font-family="Calibri, Calibri_MSFontService, sans-serif"
         font-weight="700"
         font-size="37px"
         transform="translate(481.6,368)"
         id="text20093">Research Objective(s)</text>
      <text
         fill="#1c1c1c"
         font-family="Calibri, Calibri_MSFontService, sans-serif"
         font-weight="700"
         font-size="37px"
         transform="translate(481.6,152)"
         id="text20095">Research Hypotheses</text>
      <text
         fill="#7f7f7f"
         font-family="Calibri, Calibri_MSFontService, sans-serif"
         font-style="italic"
         font-weight="400"
         font-size="27px"
         transform="translate(353.6,172)"
         id="text20097">Variables</text>
      <text
         fill="#7f7f7f"
         font-family="Calibri, Calibri_MSFontService, sans-serif"
         font-style="italic"
         font-weight="400"
         font-size="27px"
         transform="translate(225.6,214)"
         id="text20099">Unit of Measurement</text>
      <text
         fill="#1c1c1c"
         font-family="Calibri, Calibri_MSFontService, sans-serif"
         font-weight="700"
         font-size="37px"
         transform="translate(481.6,256)"
         id="text20101">Research Questions</text>
      <path
         d="M 3,-7.03037e-6 3.00009,38.86 h -6 L -3,7.03037e-6 Z M 13.0914,22.3716 1.05036e-4,44.8139 -13.0913,22.3716 c -0.8348,-1.4311 -0.3514,-3.2681 1.0797,-4.1029 1.4312,-0.8349 3.26814,-0.3515 4.10298,1.0797 l 10.50004,18 h -5.18267 l 10.49996,-18 c 0.83484,-1.4312 2.67179,-1.9146 4.10299,-1.0798 1.4311,0.8349 1.9145,2.6718 1.0797,4.103 z"
         transform="matrix(1,0,0,-1,624,556.8)"
         id="path20103" />
      <path
         d="M 3,-7.03037e-6 3.00009,38.86 h -6 L -3,7.03037e-6 Z M 13.0914,22.3716 1.05036e-4,44.8139 -13.0913,22.3716 c -0.8348,-1.4311 -0.3514,-3.2681 1.0797,-4.1029 1.4312,-0.8349 3.26814,-0.3515 4.10298,1.0797 l 10.50004,18 h -5.18267 l 10.49996,-18 c 0.83484,-1.4312 2.67179,-1.9146 4.10299,-1.0798 1.4311,0.8349 1.9145,2.6718 1.0797,4.103 z"
         transform="matrix(1,0,0,-1,624,431.8)"
         id="path20105" />
      <path
         d="M 3,-7.03037e-6 3.00009,38.86 h -6 L -3,7.03037e-6 Z M 13.0914,22.3716 1.05036e-4,44.8139 -13.0913,22.3716 c -0.8348,-1.4311 -0.3514,-3.2681 1.0797,-4.1029 1.4312,-0.8349 3.26814,-0.3515 4.10298,1.0797 l 10.50004,18 h -5.18267 l 10.49996,-18 c 0.83484,-1.4312 2.67179,-1.9146 4.10299,-1.0798 1.4311,0.8349 1.9145,2.6718 1.0797,4.103 z"
         transform="matrix(1,0,0,-1,624,319.8)"
         id="path20107" />
      <path
         d="M 3,-7.03037e-6 3.00009,38.86 h -6 L -3,7.03037e-6 Z M 13.0914,22.3716 1.05036e-4,44.8139 -13.0913,22.3716 c -0.8348,-1.4311 -0.3514,-3.2681 1.0797,-4.1029 1.4312,-0.8349 3.26814,-0.3515 4.10298,1.0797 l 10.50004,18 h -5.18267 l 10.49996,-18 c 0.83484,-1.4312 2.67179,-1.9146 4.10299,-1.0798 1.4311,0.8349 1.9145,2.6718 1.0797,4.103 z"
         transform="matrix(1,0,0,-1,624,207.8)"
         id="path20109" />
      <text
         fill="#c00000"
         font-family="'Bradley Hand ITC', 'Bradley Hand ITC_MSFontService', sans-serif"
         font-weight="400"
         font-size="43px"
         transform="translate(865.6,480)"
         id="text20111">Vague</text>
      <text
         fill="#c00000"
         font-family="'Bradley Hand ITC', 'Bradley Hand ITC_MSFontService', sans-serif"
         font-weight="400"
         font-size="43px"
         transform="translate(857.6,368)"
         id="text20113">Specific</text>
      <text
         fill="#c00000"
         font-family="'Bradley Hand ITC', 'Bradley Hand ITC_MSFontService', sans-serif"
         font-weight="400"
         font-size="43px"
         transform="translate(857.6,256)"
         id="text20115">Question</text>
      <text
         fill="#c00000"
         font-family="'Bradley Hand ITC', 'Bradley Hand ITC_MSFontService', sans-serif"
         font-weight="400"
         font-size="43px"
         transform="translate(857.6,152)"
         id="text20117">Statement</text>
      <path
         d="M 2.62467e-6,-2 76.04,-1.9999 v 4 L -2.62467e-6,2 Z M 65.0478,-8.72747 80.0093,1.05816e-4 65.0477,8.72764 C 64.0936,9.2842 62.869,8.96193 62.3124,8.00782 61.7559,7.05372 62.0781,5.82908 63.0322,5.27252 l 12.0001,-6.99998 v 3.45512 l -12,-7.00002 c -0.9541,-0.55656 -1.2764,-1.7812 -0.7198,-2.7353 0.5565,-0.9541 1.7812,-1.27637 2.7353,-0.71981 z"
         fill="#a6a6a6"
         transform="matrix(1,0,0,-1,368,600)"
         id="path20119" />
      <path
         d="M 2.62467e-6,-2 76.04,-1.9999 v 4 L -2.62467e-6,2 Z M 65.0478,-8.72747 80.0093,1.05816e-4 65.0477,8.72764 C 64.0936,9.2842 62.869,8.96193 62.3124,8.00782 61.7559,7.05372 62.0781,5.82908 63.0322,5.27252 l 12.0001,-6.99998 v 3.45512 l -12,-7.00002 c -0.9541,-0.55656 -1.2764,-1.7812 -0.7198,-2.7353 0.5565,-0.9541 1.7812,-1.27637 2.7353,-0.71981 z"
         fill="#a6a6a6"
         transform="matrix(1,0,0,-1,664,600)"
         id="path20121" />
      <path
         d="m 1087.69,577.976 -300.092,-47.383 0.624,-3.951 300.088,47.382 z m -290.282,-39.023 -13.417,-10.954 16.139,-6.288 c 1.03,-0.401 2.189,0.109 2.59,1.138 0.401,1.029 -0.108,2.188 -1.138,2.589 l -12.944,5.043 0.538,-3.413 10.762,8.786 c 0.855,0.699 0.983,1.959 0.284,2.814 -0.698,0.856 -1.958,0.983 -2.814,0.285 z"
         fill="#a6a6a6"
         id="path20123" />
      <rect
         x="464"
         y="104"
         width="360"
         height="173"
         fill="#ffff00"
         fill-opacity="0.180392"
         id="rect20125" />
    </g>
  </g>
</svg>
